<?xml version="1.0" encoding="UTF-8"?>
<svg width="398px" height="75px" viewBox="0 0 398 75" version="1.1" xmlns="http://www.w3.org/2000/svg" xmlns:xlink="http://www.w3.org/1999/xlink">
    <title>Logo_beyonnex_RGB_black</title>
    <g id="Page-1" stroke="none" stroke-width="1" fill="none" fill-rule="evenodd">
        <g id="Logo_beyonnex_RGB_black" fill="#1D1D1B" fill-rule="nonzero">
            <g id="Group" transform="translate(0.000000, 2.000000)">
                <path d="M41.5,36.7 C41.5,48.5 34.4,56.5 24.2,56.5 C18.8,56.5 14.3,53.7 12.5,50.2 L12.5,55.5 L0.8,55.5 L0.8,0.8 L12.5,0.8 L12.5,23.3 C14.4,19.7 19,16.9 24.5,16.9 C34.6,16.9 41.5,24.8 41.5,36.7 Z M29.5,36.7 C29.5,30.9 25.9,26.9 20.8,26.9 C15.5,26.9 11.9,30.9 11.9,36.7 C11.9,42.6 15.6,46.6 20.8,46.6 C26,46.6 29.5,42.5 29.5,36.7 Z" id="Shape"></path>
                <path d="M128.8,17.9 L128.8,54.3 C128.8,60.4 126.7,65 123.5,67.9 C120.2,70.8 116.2,72.3 110,72.3 C103.7,72.3 99.5,71 96.4,68.4 C93.7,66.1 91.9,62.5 91.8,58.5 L103.6,58.5 C103.8,61.7 105.6,63.6 110,63.6 C114.3,63.6 117.1,61 117.1,55.2 L117.1,49.3 C115,53.3 111,55.5 105.4,55.5 C96,55.5 91.8,49.1 91.8,39.7 L91.8,17.9 L103.5,17.9 L103.5,37.9 C103.5,42.7 105.1,46 110,46 C114.7,46 117.1,42.3 117.1,36.5 L117.1,17.9 L128.8,17.9 Z" id="Path"></path>
                <path d="M136.1,36.7 C136.1,25.2 143.9,16.8 156.6,16.8 C169.2,16.8 177,25.2 177,36.7 C177,48.2 169.2,56.7 156.6,56.7 C143.8,56.6 136.1,48.1 136.1,36.7 Z M165.3,36.7 C165.3,31 162,26.9 156.5,26.9 C150.9,26.9 147.7,31 147.7,36.7 C147.7,42.4 150.9,46.5 156.5,46.5 C162,46.5 165.3,42.4 165.3,36.7 Z" id="Shape"></path>
                <path d="M184.2,17.9 L195.9,17.9 L195.9,23.4 C198,19.2 202.2,16.9 207.8,16.9 C216.7,16.9 221.2,22 221.2,32.3 L221.2,55.5 L209.4,55.5 L209.4,36.1 C209.4,29.8 207.6,26.9 202.9,26.9 C198.2,26.9 195.8,30 195.8,35.8 L195.8,55.5 L184.1,55.5 L184.1,17.9 L184.2,17.9 Z" id="Path"></path>
                <path d="M230.7,17.9 L242.4,17.9 L242.4,23.4 C244.5,19.2 248.7,16.9 254.3,16.9 C263.2,16.9 267.7,22 267.7,32.3 L267.7,55.5 L256,55.5 L256,36.1 C256,29.8 254.2,26.9 249.5,26.9 C244.8,26.9 242.4,30 242.4,35.8 L242.4,55.5 L230.7,55.5 L230.7,17.9 Z" id="Path"></path>
                <polygon id="Path" points="327.3 36.5 314 17.9 328 17.9 334.3 28.8 340.7 17.9 354.7 17.9 341.5 36.5 354.9 55.5 340.9 55.5 334.3 44.3 327.7 55.5 313.7 55.5"></polygon>
                <path d="M74,45.4 C72.8,46.9 69.8,47.7 66.9,47.7 C61.7,47.7 58.5,44.9 58.3,40 L84.4,40 C84.6,39.2 85,36.8 85,34.8 C85,24.2 77.9,16.9 66.5,16.9 C54.5,16.9 46.6,24.5 46.6,36.8 C46.6,49.4 54.3,56.8 66.8,56.8 C71.3,56.8 76.3,55.7 79.4,53.8 L74,45.4 Z M66.4,24.7 C71.4,24.7 74.1,27.5 74.2,32.5 L58.2,32.5 C58.3,27.9 61.4,24.7 66.4,24.7 Z" id="Shape"></path>
                <path d="M301.2,45.4 C300,46.9 297,47.7 294.1,47.7 C288.9,47.7 285.7,44.9 285.5,40 L311.6,40 C311.8,39.2 312.2,36.8 312.2,34.8 C312.2,24.2 305.1,16.9 293.7,16.9 C281.7,16.9 273.8,24.5 273.8,36.8 C273.8,49.4 281.5,56.8 294,56.8 C298.5,56.8 303.5,55.7 306.6,53.8 L301.2,45.4 Z M293.6,24.7 C298.6,24.7 301.3,27.5 301.4,32.5 L285.4,32.5 C285.5,27.9 288.6,24.7 293.6,24.7 Z" id="Shape"></path>
            </g>
            <g id="Group" transform="translate(359.000000, 0.000000)">
                <path d="M0.8,17.5 C0.8,16.1 1.9,14.9 3.4,14.9 C4.9,14.9 6,16.1 6,17.5 C6,18.9 4.9,20.1 3.4,20.1 C1.9,20.1 0.8,18.9 0.8,17.5 Z" id="Path"></path>
                <path d="M10.9,3.4 C10.9,2 11.9,0.9 13.4,0.9 C14.9,0.9 15.9,2 15.9,3.4 C15.9,4.8 14.8,5.9 13.4,5.9 C12,5.9 10.9,4.8 10.9,3.4 Z M11.4,7 L15.5,7 L15.5,19.8 L11.4,19.8 L11.4,7 Z" id="Shape"></path>
                <path d="M18.1,10.5 C18.1,5.2 21.8,0.6 28.1,0.6 C34.4,0.6 38.1,5.2 38.1,10.5 C38.1,15.8 34.4,20.4 28.1,20.4 C21.8,20.4 18.1,15.8 18.1,10.5 Z M33.5,10.5 C33.5,7.3 31.6,4.5 28,4.5 C24.4,4.5 22.5,7.2 22.5,10.5 C22.5,13.8 24.4,16.5 28,16.5 C31.6,16.5 33.5,13.8 33.5,10.5 Z" id="Shape"></path>
            </g>
        </g>
    </g>
</svg>